
<svg width="130" height="50" viewBox="0 0 214 50" fill="none" xmlns="http://www.w3.org/2000/svg">
<path d="M5.8511 13.8695C4.31834 13.8695 3.06561 12.6904 3.06561 11.2461C3.06561 9.80175 4.31834 8.60797 5.8511 8.60797C7.36911 8.60797 8.63659 9.80175 8.63659 11.2461C8.63659 12.6904 7.36911 13.8695 5.8511 13.8695ZM9.35474e-05 47.0006V46.0868C9.35474e-05 45.1436 0.515925 44.7899 1.4739 44.6277C3.02139 44.3625 3.66987 43.2571 3.66987 41.4443V18.8362C3.66987 17.8782 4.1857 17.3624 5.14367 17.3624H6.60274C7.56071 17.3624 8.07654 17.8782 8.07654 18.8362V41.4738C8.07654 45.8215 5.79214 48.268 1.48864 48.4744C0.515925 48.5186 9.35474e-05 47.9438 9.35474e-05 47.0006ZM28.345 18.8362C28.345 17.8782 28.8609 17.3624 29.8188 17.3624H31.2926C32.2506 17.3624 32.7664 17.8782 32.7664 18.8362V38.5262C32.7664 39.4842 32.2506 40 31.2926 40H29.9073C28.9493 40 28.4335 39.4842 28.4335 38.5262V36.0797H28.1977C27.1513 38.4967 24.8374 40.2948 21.4329 40.2948C17.0852 40.2948 14.0049 37.3766 14.0049 31.7614V18.8362C14.0049 17.8782 14.5207 17.3624 15.4787 17.3624H16.9378C17.8958 17.3624 18.4116 17.8782 18.4116 18.8362V31.2309C18.4116 34.3111 20.2981 36.286 23.0246 36.286C25.5006 36.286 28.3598 34.4585 28.345 30.6119V18.8362ZM38.2158 38.0104C38.2158 37.2882 38.3927 36.7429 38.8496 36.1681L50.4779 21.4006V21.1943H40.0876C39.1296 21.1943 38.6138 20.6784 38.6138 19.7205V18.8362C38.6138 17.8782 39.1296 17.3624 40.0876 17.3624H54.5014C55.4593 17.3624 55.9752 17.8782 55.9752 18.8362V19.5583C55.9752 20.2805 55.7983 20.7963 55.3562 21.3859L44.1847 35.9618V36.1681H54.914C55.872 36.1681 56.3878 36.6839 56.3878 37.6419V38.5262C56.3878 39.4842 55.872 40 54.914 40H39.6896C38.7317 40 38.2158 39.4842 38.2158 38.5262V38.0104ZM72.1539 19.4257C72.1539 20.3837 71.638 20.8995 70.6801 20.8995H67.5114V33.3531C67.5114 35.9028 68.7936 36.3744 70.2232 36.3744H70.3706C71.2991 36.345 71.8738 36.6545 72.0654 37.5682L72.257 38.4083C72.4634 39.3221 72.1096 40.0295 71.1664 40.1769C70.7537 40.2358 70.2674 40.2948 69.7073 40.2948C66.2292 40.3685 63.09 38.3788 63.1047 34.2669V20.8995H61.2624C60.3045 20.8995 59.7886 20.3837 59.7886 19.4257V18.8362C59.7886 17.8782 60.3045 17.3624 61.2624 17.3624H63.1047V13.4126C63.1047 12.4546 63.6205 11.9388 64.5785 11.9388H66.0376C66.9955 11.9388 67.5114 12.4546 67.5114 13.4126V17.3624H70.6801C71.638 17.3624 72.1539 17.8782 72.1539 18.8362V19.4257Z" fill="#E52E81"/>
<path d="M98.2993 3.99561C104.773 11.7168 112.782 23.5239 112.782 31.522C112.782 39.5201 106.297 46.0044 98.2993 46.0044C90.3014 46.0042 83.8179 39.5199 83.8179 31.522C83.818 23.5239 92.2733 11.2169 98.2993 3.99561ZM105.742 27.7358C105.2 27.1939 104.321 27.194 103.779 27.7358C100.936 30.5782 98.5773 30.9832 96.8765 30.6431C95.0734 30.2823 93.654 29.015 92.9214 27.937C92.4905 27.3034 91.6275 27.1391 90.9937 27.5698C90.36 28.0007 90.1958 28.8637 90.6265 29.4976C91.6454 30.9967 93.6266 32.8235 96.3315 33.3647C99.1394 33.9264 102.399 33.0415 105.742 29.6987C106.283 29.1569 106.283 28.2778 105.742 27.7358Z" fill="#E52E81"/>
<path d="M133.329 40.4421C127.831 40.4421 123.867 36.0502 123.867 28.7254C123.867 21.3859 127.89 17.0676 133.358 17.0676C137.573 17.0676 139.076 19.632 139.872 21.0321H140.138V11.2903C140.138 10.3323 140.653 9.81649 141.611 9.81649H143.07C144.028 9.81649 144.544 10.3323 144.544 11.2903V38.5262C144.544 39.4842 144.028 40 143.07 40H141.715C140.757 40 140.241 39.4842 140.241 38.5262V36.4776H139.872C139.076 37.9219 137.455 40.4421 133.329 40.4421ZM128.318 28.6812C128.318 33.2205 130.366 36.6839 134.301 36.6839C138.104 36.6839 140.211 33.4416 140.211 28.6812C140.211 23.9503 138.148 20.8111 134.301 20.8111C130.322 20.8111 128.318 24.1861 128.318 28.6812ZM150.834 18.8362C150.834 17.8782 151.35 17.3624 152.307 17.3624H153.619C154.577 17.3624 155.093 17.8782 155.093 18.8362V20.9585H155.329C156.154 18.5267 158.424 17.0234 161.077 17.0234C161.209 17.0234 161.371 17.0234 161.533 17.0381C162.462 17.0529 162.948 17.6277 162.948 18.5561V19.7647C162.948 20.7669 162.536 21.2237 161.814 21.15C161.445 21.1058 161.032 21.0764 160.649 21.0764C157.525 21.0764 155.24 23.2134 155.24 26.1757V38.5262C155.24 39.4842 154.725 40 153.767 40H152.307C151.35 40 150.834 39.4842 150.834 38.5262V18.8362ZM175.487 40.4569C169.105 40.4569 164.934 35.7849 164.934 28.7843C164.934 21.7396 169.105 17.0676 175.487 17.0676C181.868 17.0676 186.039 21.7396 186.039 28.7843C186.039 35.7849 181.868 40.4569 175.487 40.4569ZM169.385 28.7696C169.385 33.1173 171.331 36.7576 175.501 36.7576C179.643 36.7576 181.588 33.1173 181.588 28.7696C181.588 24.4366 179.643 20.7521 175.501 20.7521C171.331 20.7521 169.385 24.4366 169.385 28.7696ZM190.958 18.8362C190.958 17.8782 191.474 17.3624 192.432 17.3624H193.788C194.746 17.3624 195.261 17.8782 195.261 18.8362V21.0321H195.63C196.411 19.632 197.929 17.0676 202.129 17.0676C207.597 17.0676 211.635 21.3859 211.635 28.7254C211.635 36.0502 207.656 40.4421 202.174 40.4421C198.047 40.4421 196.426 37.9219 195.63 36.4776H195.365V47.0153C195.365 47.9733 194.849 48.4891 193.891 48.4891H192.432C191.474 48.4891 190.958 47.9733 190.958 47.0153V18.8362ZM195.276 28.6812C195.276 33.4416 197.399 36.6839 201.186 36.6839C205.121 36.6839 207.185 33.2205 207.185 28.6812C207.185 24.1861 205.18 20.8111 201.186 20.8111C197.34 20.8111 195.276 23.9503 195.276 28.6812Z" fill="#E52E81"/>
</svg>
