<svg xmlns="http://www.w3.org/2000/svg" width="32" height="32" viewBox="72 0 52 50" fill="none">
  <!-- Droplet from jad logo (#E52E81) -->
  <path d="M98.2993 3.99561C104.773 11.7168 112.782 23.5239 112.782 31.522C112.782 39.5201 106.297 46.0044 98.2993 46.0044C90.3014 46.0042 83.8179 39.5199 83.8179 31.522C83.818 23.5239 92.2733 11.2169 98.2993 3.99561ZM105.742 27.7358C105.2 27.1939 104.321 27.194 103.779 27.7358C100.936 30.5782 98.5773 30.9832 96.8765 30.6431C95.0734 30.2823 93.654 29.015 92.9214 27.937C92.4905 27.3034 91.6275 27.1391 90.9937 27.5698C90.36 28.0007 90.1958 28.8637 90.6265 29.4976C91.6454 30.9967 93.6266 32.8235 96.3315 33.3647C99.1394 33.9264 102.399 33.0415 105.742 29.6987C106.283 29.1569 106.283 28.2778 105.742 27.7358Z" fill="#E52E81"/>
</svg>
